<?xml version="1.0" encoding="UTF-8" standalone="no"?>
<!-- Created with Inkscape (http://www.inkscape.org/) -->

<svg
   width="72"
   height="72"
   viewBox="0 0 19.05 19.05"
   version="1.1"
   id="svg1"
   inkscape:version="1.4.2 (ebf0e94, 2025-05-08)"
   sodipodi:docname="EnemyTurnIcon.svg"
   inkscape:export-filename="../day-before-heaven.github.io/base-website/assets/LargeLogoBase.png"
   inkscape:export-xdpi="170.67"
   inkscape:export-ydpi="170.67"
   xmlns:inkscape="http://www.inkscape.org/namespaces/inkscape"
   xmlns:sodipodi="http://sodipodi.sourceforge.net/DTD/sodipodi-0.dtd"
   xmlns="http://www.w3.org/2000/svg"
   xmlns:svg="http://www.w3.org/2000/svg">
  <sodipodi:namedview
     id="namedview1"
     pagecolor="#505050"
     bordercolor="#eeeeee"
     borderopacity="1"
     inkscape:showpageshadow="0"
     inkscape:pageopacity="0"
     inkscape:pagecheckerboard="0"
     inkscape:deskcolor="#505050"
     inkscape:document-units="mm"
     inkscape:zoom="4"
     inkscape:cx="16.25"
     inkscape:cy="44.125"
     inkscape:window-width="1920"
     inkscape:window-height="994"
     inkscape:window-x="1920"
     inkscape:window-y="0"
     inkscape:window-maximized="1"
     inkscape:current-layer="layer2"
     showguides="true" />
  <defs
     id="defs1" />
  <g
     inkscape:groupmode="layer"
     id="layer2"
     inkscape:label="First"
     style="display:inline">
    <path
       style="display:inline;fill:none;fill-opacity:1;fill-rule:evenodd;stroke:#000000;stroke-width:0.264583;stroke-dasharray:none;stroke-opacity:1"
       d="M 7.3535521,6.4445364 C 7.2199898,6.34164 6.566272,3.0642503 3.2809437,2.9078061"
       id="path58"
       sodipodi:nodetypes="cc" />
    <path
       style="fill:none;fill-opacity:1;fill-rule:evenodd;stroke:#000000;stroke-width:0.264583;stroke-dasharray:none;stroke-opacity:1"
       d="m 3.2707123,2.7762593 c 0,0 -0.00722,0.1559354 -0.00352,0.2374026 0.0608,1.3387838 0.7057926,12.9080281 4.5633011,11.2373721"
       id="path62"
       sodipodi:nodetypes="csc" />
    <path
       style="display:inline;fill:none;fill-opacity:1;fill-rule:evenodd;stroke:#000000;stroke-width:0.264583;stroke-dasharray:none;stroke-opacity:1"
       d="m 0.87403135,8.7024106 c 0,0 -0.0305003,0.1210353 -0.0281987,0.1535539 0.0467212,0.6601309 0.71451355,7.6307965 7.87737165,7.0212625"
       id="path61"
       sodipodi:nodetypes="csc" />
    <path
       style="display:inline;fill:none;fill-opacity:1;fill-rule:evenodd;stroke:#000000;stroke-width:0.264583;stroke-dasharray:none;stroke-opacity:1"
       d="M 9.0111865,17.709485 C 9.5446264,16.833397 9.5446264,16.833397 9.5446264,16.833397"
       id="path64" />
    <path
       style="display:inline;fill:none;fill-opacity:1;fill-rule:evenodd;stroke:#000000;stroke-width:0.264583;stroke-dasharray:none;stroke-opacity:1"
       d="M 4.1987742,10.120268 C 2.0085551,7.8048938 0.84479875,8.7608758 0.84479875,8.7608758"
       id="path60"
       sodipodi:nodetypes="cc" />
    <path
       style="display:inline;fill:none;fill-opacity:1;fill-rule:evenodd;stroke:#000000;stroke-width:0.264583;stroke-dasharray:none;stroke-opacity:1"
       d="m 2.8167806,13.78259 c 0,0 -1.3296546,-0.603004 -2.10412895,0.578989 -0.0737796,0.112602 -0.10404574,0.178716 0.0524576,0.367693 1.00882065,1.218141 7.76346645,3.772823 8.24607745,2.980213"
       id="path63"
       sodipodi:nodetypes="cssc" />
    <path
       style="display:inline;fill:none;fill-opacity:1;fill-rule:evenodd;stroke:#000000;stroke-width:0.229582;stroke-dasharray:none;stroke-opacity:1"
       d="m 9.6024924,16.848407 c 0,0 -2.8422356,-2.362728 -2.5830435,-7.6807625 0.231333,-4.7464284 2.0768496,-6.8914957 2.4309141,-7.2913404 0.04264,-0.048153 0.095285,-0.06006 0.1459281,-0.060061"
       id="path57"
       sodipodi:nodetypes="cssc" />
  </g>
  <g
     inkscape:groupmode="layer"
     id="g15"
     inkscape:label="First copy"
     style="display:inline">
    <path
       style="display:inline;fill:none;fill-opacity:1;fill-rule:evenodd;stroke:#000000;stroke-width:0.264583;stroke-dasharray:none;stroke-opacity:1"
       d="M 11.81993,6.4445364 C 11.953492,6.34164 12.60721,3.0642503 15.892541,2.9078061"
       id="path9"
       sodipodi:nodetypes="cc" />
    <path
       style="fill:none;fill-opacity:1;fill-rule:evenodd;stroke:#000000;stroke-width:0.264583;stroke-dasharray:none;stroke-opacity:1"
       d="m 15.902772,2.7762593 c 0,0 0.0072,0.1559354 0.0035,0.2374026 -0.06078,1.3387838 -0.705773,12.9080281 -4.563284,11.2373721"
       id="path10"
       sodipodi:nodetypes="csc" />
    <path
       style="display:inline;fill:none;fill-opacity:1;fill-rule:evenodd;stroke:#000000;stroke-width:0.264583;stroke-dasharray:none;stroke-opacity:1"
       d="m 18.299454,8.7024106 c 0,0 0.0305,0.1210353 0.0282,0.1535539 -0.04672,0.6601309 -0.714514,7.6307965 -7.877376,7.0212625"
       id="path11"
       sodipodi:nodetypes="csc" />
    <path
       style="display:inline;fill:none;fill-opacity:1;fill-rule:evenodd;stroke:#000000;stroke-width:0.264583;stroke-dasharray:none;stroke-opacity:1"
       d="M 10.162295,17.709485 C 9.6288543,16.833397 9.6288543,16.833397 9.6288543,16.833397"
       id="path12" />
    <path
       style="display:inline;fill:none;fill-opacity:1;fill-rule:evenodd;stroke:#000000;stroke-width:0.264583;stroke-dasharray:none;stroke-opacity:1"
       d="M 14.97471,10.120268 C 17.16493,7.8048938 18.328687,8.7608758 18.328687,8.7608758"
       id="path13"
       sodipodi:nodetypes="cc" />
    <path
       style="display:inline;fill:none;fill-opacity:1;fill-rule:evenodd;stroke:#000000;stroke-width:0.264583;stroke-dasharray:none;stroke-opacity:1"
       d="m 16.356704,13.78259 c 0,0 1.329655,-0.603004 2.10413,0.578989 0.07378,0.112602 0.104046,0.178716 -0.05246,0.367693 -1.008821,1.218141 -7.763471,3.772823 -8.246082,2.980213"
       id="path14"
       sodipodi:nodetypes="cssc" />
    <path
       style="display:inline;fill:none;fill-opacity:1;fill-rule:evenodd;stroke:#000000;stroke-width:0.229582;stroke-dasharray:none;stroke-opacity:1"
       d="m 9.5782233,16.849441 c 0,0 2.8360357,-2.363762 2.5768437,-7.6817965 C 11.923733,4.4212161 10.077183,2.2761488 9.7231177,1.8763041 9.680478,1.8281511 9.6319668,1.8162441 9.5813238,1.8162431"
       id="path15"
       sodipodi:nodetypes="cssc" />
  </g>
</svg>
